<?xml version="1.0" encoding="UTF-8"?>
<svg width="900" height="480" xmlns="http://www.w3.org/2000/svg" font-family="Arial, sans-serif">

  <rect width="900" height="480" fill="#f0f4f8" rx="12"/>
  <text x="450" y="35" text-anchor="middle" font-size="18" font-weight="bold" fill="#1a5276">Infraestructura — Unidad 1</text>

  <!-- Internet -->
  <rect x="340" y="55" width="220" height="44" rx="8" fill="#2980b9" stroke="#1a5276" stroke-width="2"/>
  <text x="450" y="75" text-anchor="middle" font-size="13" font-weight="bold" fill="white">🌐 Internet</text>
  <text x="450" y="93" text-anchor="middle" font-size="10" fill="#d6eaf8">IP pública: 34.176.168.175</text>

  <line x1="450" y1="99" x2="450" y2="129" stroke="#555" stroke-width="2" marker-end="url(#arrow)"/>

  <!-- GCP -->
  <rect x="60" y="129" width="780" height="310" rx="12" fill="#eaf4fb" stroke="#2980b9" stroke-width="2" stroke-dasharray="7,3"/>
  <text x="80" y="150" font-size="12" font-weight="bold" fill="#2980b9">☁️  Google Cloud Platform — us-central1</text>

  <!-- VM -->
  <rect x="100" y="160" width="700" height="260" rx="10" fill="#fdfefe" stroke="#aab7b8" stroke-width="1.5" stroke-dasharray="5,3"/>
  <text x="120" y="180" font-size="11" font-weight="bold" fill="#626567">🖥️  VM: vm-municipalidad · e2-medium · Ubuntu 24.04 LTS</text>
  <text x="120" y="196" font-size="10" fill="#888">IP interna: 10.0.1.2 · IP pública: 34.176.168.175 · Disco: 20 GB SSD</text>

  <!-- Nginx -->
  <rect x="330" y="205" width="240" height="48" rx="8" fill="#1a5276" stroke="#0d2b45" stroke-width="2"/>
  <text x="450" y="225" text-anchor="middle" font-size="12" font-weight="bold" fill="white">Nginx</text>
  <text x="450" y="243" text-anchor="middle" font-size="10" fill="#aed6f1">Proxy inverso · Puerto 80/443</text>

  <line x1="450" y1="253" x2="450" y2="278" stroke="#555" stroke-width="2" marker-end="url(#arrow)"/>

  <!-- Django Monolito -->
  <rect x="270" y="278" width="360" height="56" rx="8" fill="#d35400" stroke="#784212" stroke-width="2"/>
  <text x="450" y="300" text-anchor="middle" font-size="13" font-weight="bold" fill="white">Django Monolito</text>
  <text x="450" y="318" text-anchor="middle" font-size="10" fill="#fad7a0">usuarios · tramites · bodega · portal · administracion</text>
  <text x="450" y="330" text-anchor="middle" font-size="10" fill="#fad7a0">Gunicorn · Puerto 8000</text>

  <line x1="450" y1="334" x2="450" y2="359" stroke="#555" stroke-width="2" marker-end="url(#arrow)"/>

  <!-- PostgreSQL -->
  <rect x="330" y="359" width="240" height="48" rx="8" fill="#922b21" stroke="#641e16" stroke-width="2"/>
  <text x="450" y="379" text-anchor="middle" font-size="12" font-weight="bold" fill="white">PostgreSQL 15</text>
  <text x="450" y="397" text-anchor="middle" font-size="10" fill="#fadbd8">municipalidad_db · IP: 10.0.2.3</text>

  <!-- Prometheus + Grafana lateral -->
  <rect x="130" y="278" width="120" height="48" rx="8" fill="#c0392b" stroke="#922b21" stroke-width="1.5"/>
  <text x="190" y="298" text-anchor="middle" font-size="11" font-weight="bold" fill="white">Prometheus</text>
  <text x="190" y="314" text-anchor="middle" font-size="9" fill="#fadbd8">:9090</text>

  <rect x="130" y="340" width="120" height="48" rx="8" fill="#e67e22" stroke="#ca6f1e" stroke-width="1.5"/>
  <text x="190" y="360" text-anchor="middle" font-size="11" font-weight="bold" fill="white">Grafana</text>
  <text x="190" y="376" text-anchor="middle" font-size="9" fill="#fef9e7">:3000</text>

  <line x1="190" y1="326" x2="190" y2="340" stroke="#aaa" stroke-width="1.5" marker-end="url(#arrow)"/>

  <!-- Backup -->
  <rect x="650" y="278" width="120" height="48" rx="8" fill="#1e8449" stroke="#145a32" stroke-width="1.5"/>
  <text x="710" y="298" text-anchor="middle" font-size="11" font-weight="bold" fill="white">Backup</text>
  <text x="710" y="314" text-anchor="middle" font-size="9" fill="#a9dfbf">backup.sh / restore.sh</text>

  <rect x="650" y="340" width="120" height="48" rx="8" fill="#117a65" stroke="#0e6655" stroke-width="1.5"/>
  <text x="710" y="360" text-anchor="middle" font-size="11" font-weight="bold" fill="white">respaldo_datos</text>
  <text x="710" y="376" text-anchor="middle" font-size="9" fill="#a2d9ce">.json · pg_dump</text>

  <line x1="710" y1="326" x2="710" y2="340" stroke="#aaa" stroke-width="1.5" marker-end="url(#arrow)"/>

  <defs>
    <marker id="arrow" markerWidth="8" markerHeight="8" refX="6" refY="3" orient="auto">
      <path d="M0,0 L0,6 L8,3 z" fill="#555"/>
    </marker>
  </defs>
</svg>
